HIERARCHY
ROOT root
{
	OFFSET	0	13.1	24.9
	CHANNELS 6  Xposition Yposition Zposition Xrotation Yrotation Zrotation
	JOINT spine_1
	{
		OFFSET	0	9.99999	0
		CHANNELS 3  Xrotation Yrotation Zrotation
		JOINT spine_2
		{
			OFFSET	0	112	-10
			CHANNELS 3  Xrotation Yrotation Zrotation
			JOINT spine_3
			{
				OFFSET	0	206.5	19.3
				CHANNELS 3  Xrotation Yrotation Zrotation
				JOINT spine_4
				{
					OFFSET	0	110.4	14.6
					CHANNELS 3  Xrotation Yrotation Zrotation
					JOINT neck_1
					{
						OFFSET	0	71.8	-50.3
						CHANNELS 3  Xrotation Yrotation Zrotation
						JOINT neck_2
						{
							OFFSET	0	86.2	-25.8
							CHANNELS 3  Xrotation Yrotation Zrotation
							JOINT head_ee
							{
								OFFSET	0	179.8	-8.7
								CHANNELS 3  Xrotation Yrotation Zrotation
								End Site
								{
									OFFSET	1	0	0
								}
							}
						}
					}
					JOINT left_clavicle
					{
						OFFSET	-43.2	22.4	-70.8
						CHANNELS 3  Xrotation Yrotation Zrotation
						JOINT left_shoulder
						{
							OFFSET	-93.9	-5.79999	48.7
							CHANNELS 3  Xrotation Yrotation Zrotation
							JOINT left_elbow
							{
								OFFSET	-291.4	-30.8	15.2
								CHANNELS 3  Xrotation Yrotation Zrotation
								JOINT left_lowarm_twist
								{
									OFFSET	-110.7	-3.89999	13.6
									CHANNELS 3  Xrotation Yrotation Zrotation
									JOINT left_hand
									{
										OFFSET	-110.7	-3.89999	13.6
										CHANNELS 3  Xrotation Yrotation Zrotation
										JOINT left_ee
										{
											OFFSET	-80.8	-5.10001	12.1
											CHANNELS 3  Xrotation Yrotation Zrotation
											End Site
											{
												OFFSET	1	0	0
											}
										}
									}
								}
							}
						}
					}
					JOINT right_clavicle
					{
						OFFSET	43.2	22.4	-70.8
						CHANNELS 3  Xrotation Yrotation Zrotation
						JOINT right_shoulder
						{
							OFFSET	93.9	-5.79999	48.7
							CHANNELS 3  Xrotation Yrotation Zrotation
							JOINT right_elbow
							{
								OFFSET	291.4	-30.8	15.2
								CHANNELS 3  Xrotation Yrotation Zrotation
								JOINT right_lowarm_twist
								{
									OFFSET	110.7	-3.89999	13.6
									CHANNELS 3  Xrotation Yrotation Zrotation
									JOINT right_hand
									{
										OFFSET	110.7	-3.89999	13.6
										CHANNELS 3  Xrotation Yrotation Zrotation
										JOINT right_ee
										{
											OFFSET	80.8	-5.10001	12.1
											CHANNELS 3  Xrotation Yrotation Zrotation
											End Site
											{
												OFFSET	1	0	0
											}
										}
									}
								}
							}
						}
					}
				}
			}
		}
	}
	JOINT left_hip
	{
		OFFSET	-82.8	-127.5	0.300001
		CHANNELS 3  Xrotation Yrotation Zrotation
		JOINT left_knee
		{
			OFFSET	-28.2	-396.7	2.2
			CHANNELS 3  Xrotation Yrotation Zrotation
			JOINT left_ankle
			{
				OFFSET	-11.7	-411.3	35.4
				CHANNELS 3  Xrotation Yrotation Zrotation
				JOINT left_toes
				{
					OFFSET	0	-60	-88.6
					CHANNELS 3  Xrotation Yrotation Zrotation
					JOINT left_foot_ee
					{
						OFFSET	-22.5	-16.5	-42.2
						CHANNELS 3  Xrotation Yrotation Zrotation
						End Site
						{
							OFFSET	1	0	0
						}
					}
				}
			}
		}
	}
	JOINT right_hip
	{
		OFFSET	82.8	-127.5	0.300001
		CHANNELS 3  Xrotation Yrotation Zrotation
		JOINT right_knee
		{
			OFFSET	28.2	-396.7	2.2
			CHANNELS 3  Xrotation Yrotation Zrotation
			JOINT right_ankle
			{
				OFFSET	11.7	-411.3	35.4
				CHANNELS 3  Xrotation Yrotation Zrotation
				JOINT right_toes
				{
					OFFSET	0	-60	-88.6
					CHANNELS 3  Xrotation Yrotation Zrotation
					JOINT right_foot_ee
					{
						OFFSET	22.5	-16.5	-42.2
						CHANNELS 3  Xrotation Yrotation Zrotation
						End Site
						{
							OFFSET	1	0	0
						}
					}
				}
			}
		}
	}
}
MOTION
Frames: 5
Frame Time: 0.02
1059.08 726.246 -1658.95 2.08015 37.0862 5.23417 0.525008 0.236597 0.987526 0.525534 0.173282 1.00058 0.528803 -0.0315141 1.01498 0.527389 0.12917 1.00722 -6.67316 4.14921 0.653013 -6.67092 7.22049 1.47432 -0.0 0.0 -0.0 -6.3071 23.0644 -6.11214 5.67872 -13.9122 64.3945 2.84921 -54.6716 1.47306 -1.78377 -0.0662555 0.21814 0.996938 -22.4043 -2.94384 -0.0 0.0 -0.0 8.63962 19.4275 -16.4204 -14.6506 19.9003 -75.7001 0.497025 13.832 -0.0602876 17.3959 -0.281527 2.19582 2.03033 -25.6754 -22.1293 0.0 0.0 0.0 3.32738 19.2935 -11.6269 2.74637 -0.122799 -0.40348 24.9113 19.8794 -3.41033 4.1552 -0.0 -0.0 -0.0 0.0 -0.0 19.6552 24.8705 -16.0041 -9.19235 -0.267947 -1.38379 37.9878 -16.1415 4.76503 3.233 -0.0 -0.0 0.0 0.0 0.0 
1047.72 734.75 -1661.25 -0.231258 37.1453 6.60013 0.671769 0.28805 1.1678 0.672502 0.213161 1.18376 0.677218 -0.0261747 1.20251 0.675237 0.164054 1.19156 -5.8459 4.8221 1.44753 -5.83547 7.83623 2.35561 -0.0 0.0 -0.0 -6.54137 24.2953 -6.06557 5.03372 -12.9277 65.3502 2.98597 -55.9277 1.58551 -1.53477 -0.0565987 0.187813 1.03301 -22.1196 -2.58089 -0.0 0.0 -0.0 8.20402 18.8777 -15.5004 -15.3682 19.2676 -75.8046 0.617198 17.0007 -0.0922457 20.0093 -0.265807 2.52923 1.85328 -25.6801 -21.046 0.0 0.0 0.0 2.91778 19.384 -9.75787 3.96015 -0.183219 -0.579875 25.613 23.1986 -3.54869 4.6558 -0.0 -0.0 -0.0 0.0 -0.0 17.4183 25.6217 -14.4677 -0.0640312 -0.00263119 -0.0094739 37.0228 -15.5236 4.66366 2.02738 -0.0 -0.0 0.0 0.0 0.0 
1042.27 732.968 -1667.76 -0.458385 38.2787 6.85509 0.671081 0.257934 1.15884 0.67181 0.183677 1.1729 0.675865 -0.0529492 1.18601 0.673927 0.13501 1.17949 -5.37066 3.7116 -0.533035 -5.35925 7.23448 0.120559 -0.0 0.0 -0.0 -6.23001 23.8391 -5.77135 4.0454 -12.5523 65.7316 2.97318 -55.8136 1.57493 -3.7127 -0.145518 0.451622 1.47448 -26.8113 -1.82966 -0.0 0.0 -0.0 8.17255 20.5637 -15.3039 -15.1608 19.7474 -76.5166 0.69677 19.0426 -0.116867 21.4499 -0.250645 2.7126 2.63529 -27.6944 -26.3289 0.0 0.0 0.0 2.95018 20.1498 -9.80115 3.89938 -0.180105 -0.571072 26.3722 23.6219 -3.64867 6.32969 -0.0 -0.0 -0.0 0.0 -0.0 14.6923 24.8172 -13.5385 4.58224 0.215634 0.669784 40.9325 -12.015 4.97611 2.19721 -0.0 -0.0 0.0 0.0 0.0 
1043.97 728.255 -1663.96 -1.3754 39.7032 7.10314 0.762505 0.114375 1.31009 0.763459 0.0307868 1.31471 0.764425 -0.229001 1.29498 0.762085 -0.0216278 1.31489 -4.95324 4.39222 0.0015532 -4.93882 8.07162 0.758305 -0.0 0.0 -0.0 -6.7218 23.684 -6.50851 4.89422 -13.485 66.7795 2.99596 -56.0164 1.59379 -4.57769 -0.18361 0.555441 1.59725 -24.5971 -0.0179 -0.0 0.0 -0.0 8.06894 19.0394 -15.1919 -13.4415 19.4402 -76.2159 0.698968 19.0984 -0.117585 20.0096 -0.265805 2.52925 1.46829 -26.7639 -19.0161 0.0 0.0 0.0 3.42202 18.523 -9.15486 5.93954 -0.289744 -0.864726 23.913 21.4035 -3.3108 4.55666 -0.0 -0.0 -0.0 0.0 -0.0 16.0175 25.6847 -12.5049 4.25408 0.198413 0.622399 37.1578 -13.6295 4.65167 7.92951 -0.0 -0.0 0.0 0.0 0.0 
1039.39 727.313 -1670.12 -1.93289 39.854 6.34562 0.843726 0.196521 1.41327 0.844832 0.106202 1.4229 0.847788 -0.17432 1.41618 0.844993 0.0515022 1.42593 -4.35343 3.75055 0.596631 -4.34229 6.41634 1.22593 -0.0 0.0 -0.0 -6.70828 22.7046 -6.79635 3.44282 -13.2133 67.3418 2.8836 -54.995 1.50118 -6.97984 -0.29758 0.84065 1.89337 -25.7004 1.38159 -0.0 0.0 -0.0 8.15047 20.9042 -15.2279 -12.812 19.8604 -76.6539 0.729987 19.8807 -0.127934 20.7066 -0.259044 2.61803 1.89505 -26.8958 -21.6018 0.0 0.0 0.0 3.08266 17.2099 -7.5895 5.14848 -0.245988 -0.75132 23.9792 24.9201 -3.3792 5.19823 -0.0 -0.0 -0.0 0.0 -0.0 15.5067 27.8457 -10.9445 4.36655 0.204284 0.63865 38.5743 -9.02624 4.74305 8.44935 -0.0 -0.0 0.0 0.0 0.0 
